<mxfile host="app.diagrams.net" modified="2023-04-28T09:53:44.580Z" agent="Mozilla/5.0 (X11; Linux x86_64) AppleWebKit/537.36 (KHTML, like Gecko) Chrome/112.0.0.0 Safari/537.36" etag="dTIpcJ2meMXB-w_SFfa5" version="21.2.2" type="device">
  <diagram name="Page-1" id="slbK0iJyUb2RaagYPiMj">
    <mxGraphModel dx="1499" dy="742" grid="1" gridSize="10" guides="1" tooltips="1" connect="1" arrows="1" fold="1" page="1" pageScale="1" pageWidth="1654" pageHeight="1169" math="0" shadow="0">
      <root>
        <mxCell id="0" />
        <mxCell id="1" parent="0" />
        <mxCell id="QD6DIvaOTa5vyCy3siYk-1" value="" style="rounded=0;whiteSpace=wrap;html=1;dashed=1;dashPattern=1 4;" parent="1" vertex="1">
          <mxGeometry x="316.81" y="1620" width="1150" height="430" as="geometry" />
        </mxCell>
        <mxCell id="QD6DIvaOTa5vyCy3siYk-2" value="" style="rounded=0;whiteSpace=wrap;html=1;dashed=1;dashPattern=1 4;" parent="1" vertex="1">
          <mxGeometry x="823.1899999999999" y="1202.25" width="760" height="370" as="geometry" />
        </mxCell>
        <mxCell id="QD6DIvaOTa5vyCy3siYk-3" value="" style="rounded=0;whiteSpace=wrap;html=1;dashed=1;dashPattern=1 4;" parent="1" vertex="1">
          <mxGeometry x="101.81" y="1180" width="690" height="310" as="geometry" />
        </mxCell>
        <mxCell id="QD6DIvaOTa5vyCy3siYk-4" value="" style="rounded=0;whiteSpace=wrap;html=1;dashed=1;dashPattern=1 4;" parent="1" vertex="1">
          <mxGeometry x="240" y="680" width="890" height="240" as="geometry" />
        </mxCell>
        <mxCell id="QD6DIvaOTa5vyCy3siYk-5" value="" style="rounded=0;whiteSpace=wrap;html=1;dashed=1;dashPattern=1 4;movable=1;resizable=1;rotatable=1;deletable=1;editable=1;locked=0;connectable=1;shadow=0;" parent="1" vertex="1">
          <mxGeometry x="640" y="290" width="990" height="320" as="geometry" />
        </mxCell>
        <mxCell id="QD6DIvaOTa5vyCy3siYk-6" value="" style="rounded=1;whiteSpace=wrap;html=1;dashed=1;dashPattern=12 12;fillColor=#f5f5f5;fontColor=#333333;strokeColor=#666666;movable=1;resizable=1;rotatable=1;deletable=1;editable=1;locked=0;connectable=1;shadow=0;" parent="1" vertex="1">
          <mxGeometry x="1240" y="382.25" width="360" height="202.25" as="geometry" />
        </mxCell>
        <mxCell id="QD6DIvaOTa5vyCy3siYk-7" value="" style="rounded=1;whiteSpace=wrap;html=1;dashed=1;dashPattern=12 12;fillColor=#f5f5f5;fontColor=#333333;strokeColor=#666666;movable=1;resizable=1;rotatable=1;deletable=1;editable=1;locked=0;connectable=1;shadow=0;" parent="1" vertex="1">
          <mxGeometry x="690" y="332.5" width="490" height="260" as="geometry" />
        </mxCell>
        <mxCell id="QD6DIvaOTa5vyCy3siYk-8" value="&lt;h1&gt;Image classification&lt;/h1&gt;&lt;div&gt;&lt;ul&gt;&lt;li&gt;img will be classified and its class is stored in the user info db&lt;/li&gt;&lt;/ul&gt;&lt;/div&gt;" style="text;html=1;strokeColor=none;fillColor=none;spacing=5;spacingTop=-20;whiteSpace=wrap;overflow=hidden;rounded=0;" parent="1" vertex="1">
          <mxGeometry x="118.81" y="1185" width="180" height="135" as="geometry" />
        </mxCell>
        <mxCell id="QD6DIvaOTa5vyCy3siYk-9" value="API gateway" style="sketch=0;points=[[0,0,0],[0.25,0,0],[0.5,0,0],[0.75,0,0],[1,0,0],[0,1,0],[0.25,1,0],[0.5,1,0],[0.75,1,0],[1,1,0],[0,0.25,0],[0,0.5,0],[0,0.75,0],[1,0.25,0],[1,0.5,0],[1,0.75,0]];outlineConnect=0;fontColor=#232F3E;gradientColor=#FF4F8B;gradientDirection=north;fillColor=#BC1356;strokeColor=#ffffff;dashed=0;verticalLabelPosition=bottom;verticalAlign=top;align=center;html=1;fontSize=12;fontStyle=0;aspect=fixed;shape=mxgraph.aws4.resourceIcon;resIcon=mxgraph.aws4.api_gateway;" parent="1" vertex="1">
          <mxGeometry x="233.81" y="1342.25" width="90" height="90" as="geometry" />
        </mxCell>
        <mxCell id="QD6DIvaOTa5vyCy3siYk-10" value="image classifier" style="sketch=0;outlineConnect=0;fontColor=#232F3E;gradientColor=none;fillColor=#D45B07;strokeColor=none;dashed=0;verticalLabelPosition=bottom;verticalAlign=top;align=center;html=1;fontSize=12;fontStyle=0;aspect=fixed;pointerEvents=1;shape=mxgraph.aws4.lambda_function;" parent="1" vertex="1">
          <mxGeometry x="465.65" y="1357.75" width="60" height="60" as="geometry" />
        </mxCell>
        <mxCell id="QD6DIvaOTa5vyCy3siYk-11" value="" style="endArrow=classic;html=1;rounded=0;" parent="1" source="QD6DIvaOTa5vyCy3siYk-9" target="QD6DIvaOTa5vyCy3siYk-10" edge="1">
          <mxGeometry width="50" height="50" relative="1" as="geometry">
            <mxPoint x="383.81" y="1422.25" as="sourcePoint" />
            <mxPoint x="483.80999999999995" y="1252.25" as="targetPoint" />
          </mxGeometry>
        </mxCell>
        <mxCell id="QD6DIvaOTa5vyCy3siYk-12" value="/app/upload" style="edgeLabel;html=1;align=center;verticalAlign=middle;resizable=0;points=[];" parent="QD6DIvaOTa5vyCy3siYk-11" vertex="1" connectable="0">
          <mxGeometry x="-0.1726" y="1" relative="1" as="geometry">
            <mxPoint as="offset" />
          </mxGeometry>
        </mxCell>
        <mxCell id="QD6DIvaOTa5vyCy3siYk-13" value="img as payload" style="sketch=0;outlineConnect=0;fontColor=#232F3E;gradientColor=none;fillColor=#D45B07;strokeColor=none;dashed=0;verticalLabelPosition=bottom;verticalAlign=top;align=center;html=1;fontSize=12;fontStyle=0;aspect=fixed;pointerEvents=1;shape=mxgraph.aws4.container_registry_image;" parent="1" vertex="1">
          <mxGeometry x="372.39" y="1320" width="30" height="30" as="geometry" />
        </mxCell>
        <mxCell id="QD6DIvaOTa5vyCy3siYk-14" value="User details" style="sketch=0;points=[[0,0,0],[0.25,0,0],[0.5,0,0],[0.75,0,0],[1,0,0],[0,1,0],[0.25,1,0],[0.5,1,0],[0.75,1,0],[1,1,0],[0,0.25,0],[0,0.5,0],[0,0.75,0],[1,0.25,0],[1,0.5,0],[1,0.75,0]];outlineConnect=0;fontColor=#232F3E;gradientColor=#4D72F3;gradientDirection=north;fillColor=#3334B9;strokeColor=#ffffff;dashed=0;verticalLabelPosition=bottom;verticalAlign=top;align=center;html=1;fontSize=12;fontStyle=0;aspect=fixed;shape=mxgraph.aws4.resourceIcon;resIcon=mxgraph.aws4.aurora;" parent="1" vertex="1">
          <mxGeometry x="703.81" y="1364.5" width="45.5" height="45.5" as="geometry" />
        </mxCell>
        <mxCell id="QD6DIvaOTa5vyCy3siYk-15" value="" style="endArrow=classic;html=1;rounded=0;entryX=0;entryY=0.5;entryDx=0;entryDy=0;entryPerimeter=0;" parent="1" source="QD6DIvaOTa5vyCy3siYk-10" target="QD6DIvaOTa5vyCy3siYk-14" edge="1">
          <mxGeometry width="50" height="50" relative="1" as="geometry">
            <mxPoint x="573.81" y="1412.25" as="sourcePoint" />
            <mxPoint x="623.81" y="1362.25" as="targetPoint" />
          </mxGeometry>
        </mxCell>
        <mxCell id="QD6DIvaOTa5vyCy3siYk-16" value="Writes&lt;br&gt;the class of image&lt;br&gt;been classified" style="edgeLabel;html=1;align=center;verticalAlign=middle;resizable=0;points=[];" parent="QD6DIvaOTa5vyCy3siYk-15" vertex="1" connectable="0">
          <mxGeometry x="-0.141" y="-1" relative="1" as="geometry">
            <mxPoint as="offset" />
          </mxGeometry>
        </mxCell>
        <mxCell id="QD6DIvaOTa5vyCy3siYk-17" value="" style="endArrow=classic;html=1;rounded=0;entryX=0.002;entryY=0.417;entryDx=0;entryDy=0;entryPerimeter=0;" parent="1" target="QD6DIvaOTa5vyCy3siYk-9" edge="1">
          <mxGeometry width="50" height="50" relative="1" as="geometry">
            <mxPoint x="143.81" y="1382.25" as="sourcePoint" />
            <mxPoint x="233.81" y="1402.25" as="targetPoint" />
          </mxGeometry>
        </mxCell>
        <mxCell id="QD6DIvaOTa5vyCy3siYk-18" value="/app/upload" style="edgeLabel;html=1;align=center;verticalAlign=middle;resizable=0;points=[];" parent="QD6DIvaOTa5vyCy3siYk-17" vertex="1" connectable="0">
          <mxGeometry x="-0.2321" y="1" relative="1" as="geometry">
            <mxPoint as="offset" />
          </mxGeometry>
        </mxCell>
        <mxCell id="QD6DIvaOTa5vyCy3siYk-19" value="&lt;h1&gt;Login &amp;amp; Signup&lt;/h1&gt;&lt;div&gt;&lt;ul&gt;&lt;li&gt;login&lt;/li&gt;&lt;ul&gt;&lt;li&gt;password &amp;amp; username&lt;/li&gt;&lt;/ul&gt;&lt;li&gt;&lt;span style=&quot;font-size: 12px;&quot;&gt;signup&lt;/span&gt;&lt;/li&gt;&lt;ul&gt;&lt;li&gt;&lt;span style=&quot;font-size: 12px;&quot;&gt;all user details&lt;/span&gt;&lt;/li&gt;&lt;/ul&gt;&lt;/ul&gt;&lt;/div&gt;" style="text;html=1;strokeColor=none;fillColor=none;spacing=5;spacingTop=-20;whiteSpace=wrap;overflow=hidden;rounded=0;" parent="1" vertex="1">
          <mxGeometry x="270" y="680" width="190" height="160" as="geometry" />
        </mxCell>
        <mxCell id="QD6DIvaOTa5vyCy3siYk-20" value="API gateway" style="sketch=0;points=[[0,0,0],[0.25,0,0],[0.5,0,0],[0.75,0,0],[1,0,0],[0,1,0],[0.25,1,0],[0.5,1,0],[0.75,1,0],[1,1,0],[0,0.25,0],[0,0.5,0],[0,0.75,0],[1,0.25,0],[1,0.5,0],[1,0.75,0]];outlineConnect=0;fontColor=#232F3E;gradientColor=#FF4F8B;gradientDirection=north;fillColor=#BC1356;strokeColor=#ffffff;dashed=0;verticalLabelPosition=bottom;verticalAlign=top;align=center;html=1;fontSize=12;fontStyle=0;aspect=fixed;shape=mxgraph.aws4.resourceIcon;resIcon=mxgraph.aws4.api_gateway;" parent="1" vertex="1">
          <mxGeometry x="542" y="795" width="90" height="90" as="geometry" />
        </mxCell>
        <mxCell id="QD6DIvaOTa5vyCy3siYk-21" value="" style="endArrow=classic;html=1;rounded=0;entryX=0;entryY=0.111;entryDx=0;entryDy=0;entryPerimeter=0;" parent="1" edge="1">
          <mxGeometry width="50" height="50" relative="1" as="geometry">
            <mxPoint x="452" y="821" as="sourcePoint" />
            <mxPoint x="542" y="820.99" as="targetPoint" />
          </mxGeometry>
        </mxCell>
        <mxCell id="QD6DIvaOTa5vyCy3siYk-22" value="/login&lt;br&gt;or&lt;br&gt;/signup" style="edgeLabel;html=1;align=center;verticalAlign=middle;resizable=0;points=[];" parent="QD6DIvaOTa5vyCy3siYk-21" vertex="1" connectable="0">
          <mxGeometry x="-0.2479" y="1" relative="1" as="geometry">
            <mxPoint as="offset" />
          </mxGeometry>
        </mxCell>
        <mxCell id="QD6DIvaOTa5vyCy3siYk-23" style="edgeStyle=orthogonalEdgeStyle;rounded=0;orthogonalLoop=1;jettySize=auto;html=1;endArrow=block;endFill=1;startArrow=block;startFill=1;" parent="1" source="QD6DIvaOTa5vyCy3siYk-25" target="QD6DIvaOTa5vyCy3siYk-28" edge="1">
          <mxGeometry relative="1" as="geometry" />
        </mxCell>
        <mxCell id="QD6DIvaOTa5vyCy3siYk-24" value="user info store" style="edgeLabel;html=1;align=center;verticalAlign=middle;resizable=0;points=[];" parent="QD6DIvaOTa5vyCy3siYk-23" vertex="1" connectable="0">
          <mxGeometry x="-0.213" relative="1" as="geometry">
            <mxPoint x="12" as="offset" />
          </mxGeometry>
        </mxCell>
        <mxCell id="QD6DIvaOTa5vyCy3siYk-25" value="user registration&lt;br&gt;&amp;amp; login" style="sketch=0;outlineConnect=0;fontColor=#232F3E;gradientColor=none;fillColor=#D45B07;strokeColor=none;dashed=0;verticalLabelPosition=bottom;verticalAlign=top;align=center;html=1;fontSize=12;fontStyle=0;aspect=fixed;pointerEvents=1;shape=mxgraph.aws4.lambda_function;" parent="1" vertex="1">
          <mxGeometry x="788" y="810" width="60" height="60" as="geometry" />
        </mxCell>
        <mxCell id="QD6DIvaOTa5vyCy3siYk-26" value="" style="endArrow=classic;html=1;rounded=0;exitX=1;exitY=0.5;exitDx=0;exitDy=0;exitPerimeter=0;" parent="1" source="QD6DIvaOTa5vyCy3siYk-20" target="QD6DIvaOTa5vyCy3siYk-25" edge="1">
          <mxGeometry width="50" height="50" relative="1" as="geometry">
            <mxPoint x="658" y="815" as="sourcePoint" />
            <mxPoint x="758" y="870" as="targetPoint" />
          </mxGeometry>
        </mxCell>
        <mxCell id="QD6DIvaOTa5vyCy3siYk-27" value="/login &amp;amp; /signup" style="edgeLabel;html=1;align=center;verticalAlign=middle;resizable=0;points=[];" parent="QD6DIvaOTa5vyCy3siYk-26" vertex="1" connectable="0">
          <mxGeometry x="-0.1513" y="-1" relative="1" as="geometry">
            <mxPoint as="offset" />
          </mxGeometry>
        </mxCell>
        <mxCell id="QD6DIvaOTa5vyCy3siYk-28" value="User details" style="sketch=0;points=[[0,0,0],[0.25,0,0],[0.5,0,0],[0.75,0,0],[1,0,0],[0,1,0],[0.25,1,0],[0.5,1,0],[0.75,1,0],[1,1,0],[0,0.25,0],[0,0.5,0],[0,0.75,0],[1,0.25,0],[1,0.5,0],[1,0.75,0]];outlineConnect=0;fontColor=#232F3E;gradientColor=#4D72F3;gradientDirection=north;fillColor=#3334B9;strokeColor=#ffffff;dashed=0;verticalLabelPosition=bottom;verticalAlign=top;align=center;html=1;fontSize=12;fontStyle=0;aspect=fixed;shape=mxgraph.aws4.resourceIcon;resIcon=mxgraph.aws4.aurora;" parent="1" vertex="1">
          <mxGeometry x="970" y="817.25" width="45.5" height="45.5" as="geometry" />
        </mxCell>
        <mxCell id="QD6DIvaOTa5vyCy3siYk-29" value="SQL datastore" style="text;html=1;align=center;verticalAlign=middle;resizable=0;points=[];autosize=1;strokeColor=#d6b656;fillColor=#fff2cc;" parent="1" vertex="1">
          <mxGeometry x="938" y="780" width="100" height="30" as="geometry" />
        </mxCell>
        <mxCell id="QD6DIvaOTa5vyCy3siYk-30" value="Auth0 access token" style="sketch=0;pointerEvents=1;shadow=0;dashed=0;html=1;strokeColor=none;fillColor=#505050;labelPosition=center;verticalLabelPosition=bottom;verticalAlign=top;outlineConnect=0;align=center;shape=mxgraph.office.security.token;" parent="1" vertex="1">
          <mxGeometry x="370.97" y="1402.25" width="32.84" height="40" as="geometry" />
        </mxCell>
        <mxCell id="QD6DIvaOTa5vyCy3siYk-31" value="UserID &lt;br&gt;(primary key)" style="text;html=1;align=center;verticalAlign=middle;resizable=0;points=[];autosize=1;strokeColor=#9673a6;fillColor=#e1d5e7;" parent="1" vertex="1">
          <mxGeometry x="1028" y="820" width="90" height="40" as="geometry" />
        </mxCell>
        <mxCell id="QD6DIvaOTa5vyCy3siYk-32" value="More info about access token&lt;br&gt;&lt;a href=&quot;https://auth0.com/docs/secure/tokens#access-tokens&quot;&gt;Refer&lt;/a&gt;" style="text;html=1;align=center;verticalAlign=middle;resizable=0;points=[];autosize=1;strokeColor=#82b366;fillColor=#d5e8d4;" parent="1" vertex="1">
          <mxGeometry x="1163.63" y="750" width="180" height="40" as="geometry" />
        </mxCell>
        <mxCell id="QD6DIvaOTa5vyCy3siYk-33" value="" style="endArrow=classic;html=1;rounded=0;exitX=0;exitY=0.75;exitDx=0;exitDy=0;exitPerimeter=0;" parent="1" source="QD6DIvaOTa5vyCy3siYk-20" edge="1">
          <mxGeometry width="50" height="50" relative="1" as="geometry">
            <mxPoint x="538" y="845" as="sourcePoint" />
            <mxPoint x="448" y="865" as="targetPoint" />
          </mxGeometry>
        </mxCell>
        <mxCell id="QD6DIvaOTa5vyCy3siYk-34" value="access&lt;br&gt;token" style="edgeLabel;html=1;align=center;verticalAlign=middle;resizable=0;points=[];" parent="QD6DIvaOTa5vyCy3siYk-33" vertex="1" connectable="0">
          <mxGeometry x="0.4539" relative="1" as="geometry">
            <mxPoint x="18" y="-2" as="offset" />
          </mxGeometry>
        </mxCell>
        <mxCell id="QD6DIvaOTa5vyCy3siYk-35" value="User" style="shape=table;startSize=30;container=1;collapsible=1;childLayout=tableLayout;fixedRows=1;rowLines=0;fontStyle=1;align=center;resizeLast=1;html=1;whiteSpace=wrap;movable=1;resizable=1;rotatable=1;deletable=1;editable=1;locked=0;connectable=1;shadow=0;" parent="1" vertex="1">
          <mxGeometry x="780" y="362.5" width="150" height="150" as="geometry" />
        </mxCell>
        <mxCell id="QD6DIvaOTa5vyCy3siYk-36" value="" style="shape=tableRow;horizontal=0;startSize=0;swimlaneHead=0;swimlaneBody=0;fillColor=none;collapsible=0;dropTarget=0;points=[[0,0.5],[1,0.5]];portConstraint=eastwest;top=0;left=0;right=0;bottom=0;html=1;movable=1;resizable=1;rotatable=1;deletable=1;editable=1;locked=0;connectable=1;shadow=0;" parent="QD6DIvaOTa5vyCy3siYk-35" vertex="1">
          <mxGeometry y="30" width="150" height="30" as="geometry" />
        </mxCell>
        <mxCell id="QD6DIvaOTa5vyCy3siYk-37" value="PK,FK1" style="shape=partialRectangle;connectable=1;fillColor=none;top=0;left=0;bottom=0;right=0;fontStyle=1;overflow=hidden;html=1;whiteSpace=wrap;movable=1;resizable=1;rotatable=1;deletable=1;editable=1;locked=0;shadow=0;" parent="QD6DIvaOTa5vyCy3siYk-36" vertex="1">
          <mxGeometry width="60" height="30" as="geometry">
            <mxRectangle width="60" height="30" as="alternateBounds" />
          </mxGeometry>
        </mxCell>
        <mxCell id="QD6DIvaOTa5vyCy3siYk-38" value="userid" style="shape=partialRectangle;connectable=1;fillColor=none;top=0;left=0;bottom=0;right=0;align=left;spacingLeft=6;fontStyle=5;overflow=hidden;html=1;whiteSpace=wrap;movable=1;resizable=1;rotatable=1;deletable=1;editable=1;locked=0;shadow=0;" parent="QD6DIvaOTa5vyCy3siYk-36" vertex="1">
          <mxGeometry x="60" width="90" height="30" as="geometry">
            <mxRectangle width="90" height="30" as="alternateBounds" />
          </mxGeometry>
        </mxCell>
        <mxCell id="QD6DIvaOTa5vyCy3siYk-39" value="" style="shape=tableRow;horizontal=0;startSize=0;swimlaneHead=0;swimlaneBody=0;fillColor=none;collapsible=0;dropTarget=0;points=[[0,0.5],[1,0.5]];portConstraint=eastwest;top=0;left=0;right=0;bottom=1;html=1;movable=1;resizable=1;rotatable=1;deletable=1;editable=1;locked=0;connectable=1;shadow=0;" parent="QD6DIvaOTa5vyCy3siYk-35" vertex="1">
          <mxGeometry y="60" width="150" height="30" as="geometry" />
        </mxCell>
        <mxCell id="QD6DIvaOTa5vyCy3siYk-40" value="FK2" style="shape=partialRectangle;connectable=1;fillColor=none;top=0;left=0;bottom=0;right=0;fontStyle=1;overflow=hidden;html=1;whiteSpace=wrap;movable=1;resizable=1;rotatable=1;deletable=1;editable=1;locked=0;shadow=0;" parent="QD6DIvaOTa5vyCy3siYk-39" vertex="1">
          <mxGeometry width="60" height="30" as="geometry">
            <mxRectangle width="60" height="30" as="alternateBounds" />
          </mxGeometry>
        </mxCell>
        <mxCell id="QD6DIvaOTa5vyCy3siYk-41" value="soilid" style="shape=partialRectangle;connectable=1;fillColor=none;top=0;left=0;bottom=0;right=0;align=left;spacingLeft=6;fontStyle=5;overflow=hidden;html=1;whiteSpace=wrap;movable=1;resizable=1;rotatable=1;deletable=1;editable=1;locked=0;shadow=0;" parent="QD6DIvaOTa5vyCy3siYk-39" vertex="1">
          <mxGeometry x="60" width="90" height="30" as="geometry">
            <mxRectangle width="90" height="30" as="alternateBounds" />
          </mxGeometry>
        </mxCell>
        <mxCell id="QD6DIvaOTa5vyCy3siYk-42" value="" style="shape=tableRow;horizontal=0;startSize=0;swimlaneHead=0;swimlaneBody=0;fillColor=none;collapsible=0;dropTarget=0;points=[[0,0.5],[1,0.5]];portConstraint=eastwest;top=0;left=0;right=0;bottom=0;html=1;movable=1;resizable=1;rotatable=1;deletable=1;editable=1;locked=0;connectable=1;shadow=0;" parent="QD6DIvaOTa5vyCy3siYk-35" vertex="1">
          <mxGeometry y="90" width="150" height="30" as="geometry" />
        </mxCell>
        <mxCell id="QD6DIvaOTa5vyCy3siYk-43" value="" style="shape=partialRectangle;connectable=1;fillColor=none;top=0;left=0;bottom=0;right=0;editable=1;overflow=hidden;html=1;whiteSpace=wrap;movable=1;resizable=1;rotatable=1;deletable=1;locked=0;shadow=0;" parent="QD6DIvaOTa5vyCy3siYk-42" vertex="1">
          <mxGeometry width="60" height="30" as="geometry">
            <mxRectangle width="60" height="30" as="alternateBounds" />
          </mxGeometry>
        </mxCell>
        <mxCell id="QD6DIvaOTa5vyCy3siYk-44" value="name" style="shape=partialRectangle;connectable=1;fillColor=none;top=0;left=0;bottom=0;right=0;align=left;spacingLeft=6;overflow=hidden;html=1;whiteSpace=wrap;movable=1;resizable=1;rotatable=1;deletable=1;editable=1;locked=0;shadow=0;" parent="QD6DIvaOTa5vyCy3siYk-42" vertex="1">
          <mxGeometry x="60" width="90" height="30" as="geometry">
            <mxRectangle width="90" height="30" as="alternateBounds" />
          </mxGeometry>
        </mxCell>
        <mxCell id="QD6DIvaOTa5vyCy3siYk-45" value="" style="shape=tableRow;horizontal=0;startSize=0;swimlaneHead=0;swimlaneBody=0;fillColor=none;collapsible=0;dropTarget=0;points=[[0,0.5],[1,0.5]];portConstraint=eastwest;top=0;left=0;right=0;bottom=0;html=1;movable=1;resizable=1;rotatable=1;deletable=1;editable=1;locked=0;connectable=1;shadow=0;" parent="QD6DIvaOTa5vyCy3siYk-35" vertex="1">
          <mxGeometry y="120" width="150" height="30" as="geometry" />
        </mxCell>
        <mxCell id="QD6DIvaOTa5vyCy3siYk-46" value="" style="shape=partialRectangle;connectable=1;fillColor=none;top=0;left=0;bottom=0;right=0;editable=1;overflow=hidden;html=1;whiteSpace=wrap;movable=1;resizable=1;rotatable=1;deletable=1;locked=0;shadow=0;" parent="QD6DIvaOTa5vyCy3siYk-45" vertex="1">
          <mxGeometry width="60" height="30" as="geometry">
            <mxRectangle width="60" height="30" as="alternateBounds" />
          </mxGeometry>
        </mxCell>
        <mxCell id="QD6DIvaOTa5vyCy3siYk-47" value="other" style="shape=partialRectangle;connectable=1;fillColor=none;top=0;left=0;bottom=0;right=0;align=left;spacingLeft=6;overflow=hidden;html=1;whiteSpace=wrap;movable=1;resizable=1;rotatable=1;deletable=1;editable=1;locked=0;shadow=0;" parent="QD6DIvaOTa5vyCy3siYk-45" vertex="1">
          <mxGeometry x="60" width="90" height="30" as="geometry">
            <mxRectangle width="90" height="30" as="alternateBounds" />
          </mxGeometry>
        </mxCell>
        <mxCell id="QD6DIvaOTa5vyCy3siYk-48" value="Soil" style="shape=table;startSize=30;container=1;collapsible=1;childLayout=tableLayout;fixedRows=1;rowLines=0;fontStyle=1;align=center;resizeLast=1;html=1;whiteSpace=wrap;movable=1;resizable=1;rotatable=1;deletable=1;editable=1;locked=0;connectable=1;shadow=0;" parent="1" vertex="1">
          <mxGeometry x="1010" y="362.5" width="150" height="140" as="geometry" />
        </mxCell>
        <mxCell id="QD6DIvaOTa5vyCy3siYk-49" value="" style="shape=tableRow;horizontal=0;startSize=0;swimlaneHead=0;swimlaneBody=0;fillColor=none;collapsible=0;dropTarget=0;points=[[0,0.5],[1,0.5]];portConstraint=eastwest;top=0;left=0;right=0;bottom=0;html=1;movable=1;resizable=1;rotatable=1;deletable=1;editable=1;locked=0;connectable=1;shadow=0;" parent="QD6DIvaOTa5vyCy3siYk-48" vertex="1">
          <mxGeometry y="30" width="150" height="30" as="geometry" />
        </mxCell>
        <mxCell id="QD6DIvaOTa5vyCy3siYk-50" value="PK" style="shape=partialRectangle;connectable=1;fillColor=none;top=0;left=0;bottom=0;right=0;fontStyle=1;overflow=hidden;html=1;whiteSpace=wrap;movable=1;resizable=1;rotatable=1;deletable=1;editable=1;locked=0;shadow=0;" parent="QD6DIvaOTa5vyCy3siYk-49" vertex="1">
          <mxGeometry width="60" height="30" as="geometry">
            <mxRectangle width="60" height="30" as="alternateBounds" />
          </mxGeometry>
        </mxCell>
        <mxCell id="QD6DIvaOTa5vyCy3siYk-51" value="soilid" style="shape=partialRectangle;connectable=1;fillColor=none;top=0;left=0;bottom=0;right=0;align=left;spacingLeft=6;fontStyle=5;overflow=hidden;html=1;whiteSpace=wrap;movable=1;resizable=1;rotatable=1;deletable=1;editable=1;locked=0;shadow=0;" parent="QD6DIvaOTa5vyCy3siYk-49" vertex="1">
          <mxGeometry x="60" width="90" height="30" as="geometry">
            <mxRectangle width="90" height="30" as="alternateBounds" />
          </mxGeometry>
        </mxCell>
        <mxCell id="QD6DIvaOTa5vyCy3siYk-52" value="" style="shape=tableRow;horizontal=0;startSize=0;swimlaneHead=0;swimlaneBody=0;fillColor=none;collapsible=0;dropTarget=0;points=[[0,0.5],[1,0.5]];portConstraint=eastwest;top=0;left=0;right=0;bottom=1;html=1;movable=1;resizable=1;rotatable=1;deletable=1;editable=1;locked=0;connectable=1;shadow=0;" parent="QD6DIvaOTa5vyCy3siYk-48" vertex="1">
          <mxGeometry y="60" width="150" height="20" as="geometry" />
        </mxCell>
        <mxCell id="QD6DIvaOTa5vyCy3siYk-53" value="" style="shape=partialRectangle;connectable=1;fillColor=none;top=0;left=0;bottom=0;right=0;fontStyle=1;overflow=hidden;html=1;whiteSpace=wrap;movable=1;resizable=1;rotatable=1;deletable=1;editable=1;locked=0;shadow=0;" parent="QD6DIvaOTa5vyCy3siYk-52" vertex="1">
          <mxGeometry width="60" height="20" as="geometry">
            <mxRectangle width="60" height="20" as="alternateBounds" />
          </mxGeometry>
        </mxCell>
        <mxCell id="QD6DIvaOTa5vyCy3siYk-54" value="" style="shape=partialRectangle;connectable=1;fillColor=none;top=0;left=0;bottom=0;right=0;align=left;spacingLeft=6;fontStyle=5;overflow=hidden;html=1;whiteSpace=wrap;movable=1;resizable=1;rotatable=1;deletable=1;editable=1;locked=0;shadow=0;" parent="QD6DIvaOTa5vyCy3siYk-52" vertex="1">
          <mxGeometry x="60" width="90" height="20" as="geometry">
            <mxRectangle width="90" height="20" as="alternateBounds" />
          </mxGeometry>
        </mxCell>
        <mxCell id="QD6DIvaOTa5vyCy3siYk-55" value="" style="shape=tableRow;horizontal=0;startSize=0;swimlaneHead=0;swimlaneBody=0;fillColor=none;collapsible=0;dropTarget=0;points=[[0,0.5],[1,0.5]];portConstraint=eastwest;top=0;left=0;right=0;bottom=0;html=1;movable=1;resizable=1;rotatable=1;deletable=1;editable=1;locked=0;connectable=1;shadow=0;" parent="QD6DIvaOTa5vyCy3siYk-48" vertex="1">
          <mxGeometry y="80" width="150" height="30" as="geometry" />
        </mxCell>
        <mxCell id="QD6DIvaOTa5vyCy3siYk-56" value="" style="shape=partialRectangle;connectable=1;fillColor=none;top=0;left=0;bottom=0;right=0;editable=1;overflow=hidden;html=1;whiteSpace=wrap;movable=1;resizable=1;rotatable=1;deletable=1;locked=0;shadow=0;" parent="QD6DIvaOTa5vyCy3siYk-55" vertex="1">
          <mxGeometry width="60" height="30" as="geometry">
            <mxRectangle width="60" height="30" as="alternateBounds" />
          </mxGeometry>
        </mxCell>
        <mxCell id="QD6DIvaOTa5vyCy3siYk-57" value="name" style="shape=partialRectangle;connectable=1;fillColor=none;top=0;left=0;bottom=0;right=0;align=left;spacingLeft=6;overflow=hidden;html=1;whiteSpace=wrap;movable=1;resizable=1;rotatable=1;deletable=1;editable=1;locked=0;shadow=0;" parent="QD6DIvaOTa5vyCy3siYk-55" vertex="1">
          <mxGeometry x="60" width="90" height="30" as="geometry">
            <mxRectangle width="90" height="30" as="alternateBounds" />
          </mxGeometry>
        </mxCell>
        <mxCell id="QD6DIvaOTa5vyCy3siYk-58" value="" style="shape=tableRow;horizontal=0;startSize=0;swimlaneHead=0;swimlaneBody=0;fillColor=none;collapsible=0;dropTarget=0;points=[[0,0.5],[1,0.5]];portConstraint=eastwest;top=0;left=0;right=0;bottom=0;html=1;movable=1;resizable=1;rotatable=1;deletable=1;editable=1;locked=0;connectable=1;shadow=0;" parent="QD6DIvaOTa5vyCy3siYk-48" vertex="1">
          <mxGeometry y="110" width="150" height="30" as="geometry" />
        </mxCell>
        <mxCell id="QD6DIvaOTa5vyCy3siYk-59" value="" style="shape=partialRectangle;connectable=1;fillColor=none;top=0;left=0;bottom=0;right=0;editable=1;overflow=hidden;html=1;whiteSpace=wrap;movable=1;resizable=1;rotatable=1;deletable=1;locked=0;shadow=0;" parent="QD6DIvaOTa5vyCy3siYk-58" vertex="1">
          <mxGeometry width="60" height="30" as="geometry">
            <mxRectangle width="60" height="30" as="alternateBounds" />
          </mxGeometry>
        </mxCell>
        <mxCell id="QD6DIvaOTa5vyCy3siYk-60" value="" style="shape=partialRectangle;connectable=1;fillColor=none;top=0;left=0;bottom=0;right=0;align=left;spacingLeft=6;overflow=hidden;html=1;whiteSpace=wrap;movable=1;resizable=1;rotatable=1;deletable=1;editable=1;locked=0;shadow=0;" parent="QD6DIvaOTa5vyCy3siYk-58" vertex="1">
          <mxGeometry x="60" width="90" height="30" as="geometry">
            <mxRectangle width="90" height="30" as="alternateBounds" />
          </mxGeometry>
        </mxCell>
        <mxCell id="QD6DIvaOTa5vyCy3siYk-61" style="edgeStyle=orthogonalEdgeStyle;rounded=0;orthogonalLoop=1;jettySize=auto;html=1;entryX=0;entryY=0.5;entryDx=0;entryDy=0;movable=1;resizable=1;rotatable=1;deletable=1;editable=1;locked=0;connectable=1;shadow=0;" parent="1" source="QD6DIvaOTa5vyCy3siYk-39" target="QD6DIvaOTa5vyCy3siYk-49" edge="1">
          <mxGeometry relative="1" as="geometry" />
        </mxCell>
        <mxCell id="QD6DIvaOTa5vyCy3siYk-62" value="User details" style="sketch=0;points=[[0,0,0],[0.25,0,0],[0.5,0,0],[0.75,0,0],[1,0,0],[0,1,0],[0.25,1,0],[0.5,1,0],[0.75,1,0],[1,1,0],[0,0.25,0],[0,0.5,0],[0,0.75,0],[1,0.25,0],[1,0.5,0],[1,0.75,0]];outlineConnect=0;fontColor=#232F3E;gradientColor=#4D72F3;gradientDirection=north;fillColor=#3334B9;strokeColor=#ffffff;dashed=0;verticalLabelPosition=bottom;verticalAlign=top;align=center;html=1;fontSize=12;fontStyle=0;aspect=fixed;shape=mxgraph.aws4.resourceIcon;resIcon=mxgraph.aws4.aurora;movable=1;resizable=1;rotatable=1;deletable=1;editable=1;locked=0;connectable=1;shadow=0;" parent="1" vertex="1">
          <mxGeometry x="670" y="312.5" width="45.5" height="45.5" as="geometry" />
        </mxCell>
        <mxCell id="QD6DIvaOTa5vyCy3siYk-63" value="" style="html=1;verticalLabelPosition=bottom;align=center;labelBackgroundColor=#ffffff;verticalAlign=top;strokeWidth=2;strokeColor=#0080F0;shadow=0;dashed=0;shape=mxgraph.ios7.icons.smartphone;" parent="1" vertex="1">
          <mxGeometry x="123.81" y="1372.25" width="18" height="30" as="geometry" />
        </mxCell>
        <mxCell id="QD6DIvaOTa5vyCy3siYk-64" value="" style="html=1;verticalLabelPosition=bottom;align=center;labelBackgroundColor=#ffffff;verticalAlign=top;strokeWidth=2;strokeColor=#0080F0;shadow=0;dashed=0;shape=mxgraph.ios7.icons.smartphone;" parent="1" vertex="1">
          <mxGeometry x="420" y="825" width="18" height="30" as="geometry" />
        </mxCell>
        <mxCell id="QD6DIvaOTa5vyCy3siYk-65" value="&lt;h1&gt;Live Metrics&lt;/h1&gt;&lt;div&gt;&lt;ul&gt;&lt;li&gt;data from sensors&lt;/li&gt;&lt;li&gt;&lt;font color=&quot;#cc0066&quot;&gt;&lt;i&gt;(optional)&lt;/i&gt; &lt;/font&gt;stage&lt;/li&gt;&lt;ul&gt;&lt;li&gt;may get pruned&lt;/li&gt;&lt;/ul&gt;&lt;/ul&gt;&lt;/div&gt;" style="text;html=1;strokeColor=none;fillColor=none;spacing=5;spacingTop=-20;whiteSpace=wrap;overflow=hidden;rounded=0;" parent="1" vertex="1">
          <mxGeometry x="910.9399999999999" y="1212.25" width="180" height="135" as="geometry" />
        </mxCell>
        <mxCell id="QD6DIvaOTa5vyCy3siYk-66" value="API gateway" style="sketch=0;points=[[0,0,0],[0.25,0,0],[0.5,0,0],[0.75,0,0],[1,0,0],[0,1,0],[0.25,1,0],[0.5,1,0],[0.75,1,0],[1,1,0],[0,0.25,0],[0,0.5,0],[0,0.75,0],[1,0.25,0],[1,0.5,0],[1,0.75,0]];outlineConnect=0;fontColor=#232F3E;gradientColor=#FF4F8B;gradientDirection=north;fillColor=#BC1356;strokeColor=#ffffff;dashed=0;verticalLabelPosition=bottom;verticalAlign=top;align=center;html=1;fontSize=12;fontStyle=0;aspect=fixed;shape=mxgraph.aws4.resourceIcon;resIcon=mxgraph.aws4.api_gateway;" parent="1" vertex="1">
          <mxGeometry x="1045.94" y="1364.5" width="90" height="90" as="geometry" />
        </mxCell>
        <mxCell id="QD6DIvaOTa5vyCy3siYk-67" value="metrics transformer" style="sketch=0;outlineConnect=0;fontColor=#232F3E;gradientColor=none;fillColor=#D45B07;strokeColor=none;dashed=0;verticalLabelPosition=bottom;verticalAlign=top;align=center;html=1;fontSize=12;fontStyle=0;aspect=fixed;pointerEvents=1;shape=mxgraph.aws4.lambda_function;" parent="1" vertex="1">
          <mxGeometry x="1277.78" y="1380" width="60" height="60" as="geometry" />
        </mxCell>
        <mxCell id="QD6DIvaOTa5vyCy3siYk-68" value="" style="endArrow=classic;html=1;rounded=0;" parent="1" source="QD6DIvaOTa5vyCy3siYk-66" target="QD6DIvaOTa5vyCy3siYk-67" edge="1">
          <mxGeometry width="50" height="50" relative="1" as="geometry">
            <mxPoint x="1195.94" y="1444.5" as="sourcePoint" />
            <mxPoint x="1295.94" y="1274.5" as="targetPoint" />
          </mxGeometry>
        </mxCell>
        <mxCell id="QD6DIvaOTa5vyCy3siYk-69" value="/app/live" style="edgeLabel;html=1;align=center;verticalAlign=middle;resizable=0;points=[];" parent="QD6DIvaOTa5vyCy3siYk-68" vertex="1" connectable="0">
          <mxGeometry x="-0.1726" y="1" relative="1" as="geometry">
            <mxPoint as="offset" />
          </mxGeometry>
        </mxCell>
        <mxCell id="QD6DIvaOTa5vyCy3siYk-70" value="" style="endArrow=classic;html=1;rounded=0;entryX=0;entryY=0.5;entryDx=0;entryDy=0;entryPerimeter=0;" parent="1" source="QD6DIvaOTa5vyCy3siYk-67" edge="1">
          <mxGeometry width="50" height="50" relative="1" as="geometry">
            <mxPoint x="1385.94" y="1434.5" as="sourcePoint" />
            <mxPoint x="1515.94" y="1409.5" as="targetPoint" />
          </mxGeometry>
        </mxCell>
        <mxCell id="QD6DIvaOTa5vyCy3siYk-71" value="writes the data&lt;br&gt;from sensors" style="edgeLabel;html=1;align=center;verticalAlign=middle;resizable=0;points=[];" parent="QD6DIvaOTa5vyCy3siYk-70" vertex="1" connectable="0">
          <mxGeometry x="-0.141" y="-1" relative="1" as="geometry">
            <mxPoint as="offset" />
          </mxGeometry>
        </mxCell>
        <mxCell id="QD6DIvaOTa5vyCy3siYk-72" value="" style="endArrow=classic;html=1;rounded=0;entryX=0.002;entryY=0.417;entryDx=0;entryDy=0;entryPerimeter=0;" parent="1" target="QD6DIvaOTa5vyCy3siYk-66" edge="1">
          <mxGeometry width="50" height="50" relative="1" as="geometry">
            <mxPoint x="955.9399999999999" y="1404.5" as="sourcePoint" />
            <mxPoint x="1045.94" y="1424.5" as="targetPoint" />
          </mxGeometry>
        </mxCell>
        <mxCell id="QD6DIvaOTa5vyCy3siYk-73" value="/app/live" style="edgeLabel;html=1;align=center;verticalAlign=middle;resizable=0;points=[];" parent="QD6DIvaOTa5vyCy3siYk-72" vertex="1" connectable="0">
          <mxGeometry x="-0.2321" y="1" relative="1" as="geometry">
            <mxPoint as="offset" />
          </mxGeometry>
        </mxCell>
        <mxCell id="QD6DIvaOTa5vyCy3siYk-74" value="Auth0 access token" style="sketch=0;pointerEvents=1;shadow=0;dashed=0;html=1;strokeColor=#b85450;fillColor=#f8cecc;labelPosition=center;verticalLabelPosition=bottom;verticalAlign=top;outlineConnect=0;align=center;shape=mxgraph.office.security.token;" parent="1" vertex="1">
          <mxGeometry x="1195.94" y="1469.5" width="32.84" height="40" as="geometry" />
        </mxCell>
        <mxCell id="QD6DIvaOTa5vyCy3siYk-75" value="" style="shape=image;html=1;verticalAlign=top;verticalLabelPosition=bottom;labelBackgroundColor=#ffffff;imageAspect=0;aspect=fixed;image=https://cdn1.iconfinder.com/data/icons/iconoir-vol-3/24/question-mark-128.png" parent="1" vertex="1">
          <mxGeometry x="1214.52" y="1454.5" width="38" height="38" as="geometry" />
        </mxCell>
        <mxCell id="QD6DIvaOTa5vyCy3siYk-76" value="Soil moisture&lt;br&gt;&amp;amp;&lt;br&gt;Soil mineral" style="sketch=0;outlineConnect=0;fontColor=#232F3E;gradientColor=none;strokeColor=#232F3E;fillColor=#ffffff;dashed=0;verticalLabelPosition=bottom;verticalAlign=top;align=center;html=1;fontSize=12;fontStyle=0;aspect=fixed;shape=mxgraph.aws4.resourceIcon;resIcon=mxgraph.aws4.generic;" parent="1" vertex="1">
          <mxGeometry x="905.9399999999999" y="1372.25" width="60" height="60" as="geometry" />
        </mxCell>
        <mxCell id="QD6DIvaOTa5vyCy3siYk-77" value="soil data" style="sketch=0;points=[[0,0,0],[0.25,0,0],[0.5,0,0],[0.75,0,0],[1,0,0],[0,1,0],[0.25,1,0],[0.5,1,0],[0.75,1,0],[1,1,0],[0,0.25,0],[0,0.5,0],[0,0.75,0],[1,0.25,0],[1,0.5,0],[1,0.75,0]];outlineConnect=0;fontColor=#232F3E;gradientColor=#4D72F3;gradientDirection=north;fillColor=#3334B9;strokeColor=#ffffff;dashed=0;verticalLabelPosition=bottom;verticalAlign=top;align=center;html=1;fontSize=12;fontStyle=0;aspect=fixed;shape=mxgraph.aws4.resourceIcon;resIcon=mxgraph.aws4.dynamodb;" parent="1" vertex="1">
          <mxGeometry x="1515.94" y="1385.88" width="47.25" height="47.25" as="geometry" />
        </mxCell>
        <mxCell id="QD6DIvaOTa5vyCy3siYk-78" value="which auth to use for Secure conn??" style="text;html=1;align=center;verticalAlign=middle;resizable=0;points=[];autosize=1;strokeColor=#b85450;fillColor=#f8cecc;" parent="1" vertex="1">
          <mxGeometry x="835.9399999999999" y="1492.5" width="220" height="30" as="geometry" />
        </mxCell>
        <mxCell id="QD6DIvaOTa5vyCy3siYk-79" value="&lt;h1&gt;Fetch Prediction&lt;/h1&gt;&lt;div&gt;&lt;ul&gt;&lt;li&gt;using image metadata&lt;/li&gt;&lt;ul&gt;&lt;li&gt;class label&lt;/li&gt;&lt;/ul&gt;&lt;li&gt;soil properties&lt;/li&gt;&lt;ul&gt;&lt;li&gt;from metics collected&lt;/li&gt;&lt;/ul&gt;&lt;/ul&gt;&lt;/div&gt;" style="text;html=1;strokeColor=none;fillColor=none;spacing=5;spacingTop=-20;whiteSpace=wrap;overflow=hidden;rounded=0;" parent="1" vertex="1">
          <mxGeometry x="341.81" y="1627.75" width="210" height="135" as="geometry" />
        </mxCell>
        <mxCell id="QD6DIvaOTa5vyCy3siYk-80" value="API gateway" style="sketch=0;points=[[0,0,0],[0.25,0,0],[0.5,0,0],[0.75,0,0],[1,0,0],[0,1,0],[0.25,1,0],[0.5,1,0],[0.75,1,0],[1,1,0],[0,0.25,0],[0,0.5,0],[0,0.75,0],[1,0.25,0],[1,0.5,0],[1,0.75,0]];outlineConnect=0;fontColor=#232F3E;gradientColor=#FF4F8B;gradientDirection=north;fillColor=#BC1356;strokeColor=#ffffff;dashed=0;verticalLabelPosition=bottom;verticalAlign=top;align=center;html=1;fontSize=12;fontStyle=0;aspect=fixed;shape=mxgraph.aws4.resourceIcon;resIcon=mxgraph.aws4.api_gateway;" parent="1" vertex="1">
          <mxGeometry x="446.81" y="1785" width="90" height="90" as="geometry" />
        </mxCell>
        <mxCell id="QD6DIvaOTa5vyCy3siYk-81" value="" style="endArrow=classic;html=1;rounded=0;" parent="1" source="QD6DIvaOTa5vyCy3siYk-80" target="QD6DIvaOTa5vyCy3siYk-93" edge="1">
          <mxGeometry width="50" height="50" relative="1" as="geometry">
            <mxPoint x="596.81" y="1865" as="sourcePoint" />
            <mxPoint x="678.6506824230567" y="1830.4308261446758" as="targetPoint" />
          </mxGeometry>
        </mxCell>
        <mxCell id="QD6DIvaOTa5vyCy3siYk-82" value="/app/get-pred" style="edgeLabel;html=1;align=center;verticalAlign=middle;resizable=0;points=[];" parent="QD6DIvaOTa5vyCy3siYk-81" vertex="1" connectable="0">
          <mxGeometry x="-0.1726" y="1" relative="1" as="geometry">
            <mxPoint as="offset" />
          </mxGeometry>
        </mxCell>
        <mxCell id="QD6DIvaOTa5vyCy3siYk-83" value="" style="endArrow=classic;html=1;rounded=0;entryX=0.002;entryY=0.417;entryDx=0;entryDy=0;entryPerimeter=0;" parent="1" target="QD6DIvaOTa5vyCy3siYk-80" edge="1">
          <mxGeometry width="50" height="50" relative="1" as="geometry">
            <mxPoint x="356.81" y="1825" as="sourcePoint" />
            <mxPoint x="446.81" y="1845" as="targetPoint" />
          </mxGeometry>
        </mxCell>
        <mxCell id="QD6DIvaOTa5vyCy3siYk-84" value="/app/get-pred" style="edgeLabel;html=1;align=center;verticalAlign=middle;resizable=0;points=[];" parent="QD6DIvaOTa5vyCy3siYk-83" vertex="1" connectable="0">
          <mxGeometry x="-0.2321" y="1" relative="1" as="geometry">
            <mxPoint x="6" as="offset" />
          </mxGeometry>
        </mxCell>
        <mxCell id="QD6DIvaOTa5vyCy3siYk-85" value="Auth0 access token" style="sketch=0;pointerEvents=1;shadow=0;dashed=0;html=1;strokeColor=none;fillColor=#505050;labelPosition=center;verticalLabelPosition=bottom;verticalAlign=top;outlineConnect=0;align=center;shape=mxgraph.office.security.token;" parent="1" vertex="1">
          <mxGeometry x="597.97" y="1860" width="32.84" height="40" as="geometry" />
        </mxCell>
        <mxCell id="QD6DIvaOTa5vyCy3siYk-86" value="" style="html=1;verticalLabelPosition=bottom;align=center;labelBackgroundColor=#ffffff;verticalAlign=top;strokeWidth=2;strokeColor=#0080F0;shadow=0;dashed=0;shape=mxgraph.ios7.icons.smartphone;" parent="1" vertex="1">
          <mxGeometry x="326.81" y="1815" width="28" height="55" as="geometry" />
        </mxCell>
        <mxCell id="QD6DIvaOTa5vyCy3siYk-87" value="Recommender" style="points=[[0,0],[0.25,0],[0.5,0],[0.75,0],[1,0],[1,0.25],[1,0.5],[1,0.75],[1,1],[0.75,1],[0.5,1],[0.25,1],[0,1],[0,0.75],[0,0.5],[0,0.25]];outlineConnect=0;gradientColor=none;html=1;whiteSpace=wrap;fontSize=12;fontStyle=0;container=1;pointerEvents=0;collapsible=0;recursiveResize=0;shape=mxgraph.aws4.group;grIcon=mxgraph.aws4.group_aws_step_functions_workflow;strokeColor=#CD2264;fillColor=none;verticalAlign=top;align=left;spacingLeft=30;fontColor=#CD2264;dashed=0;" parent="1" vertex="1">
          <mxGeometry x="843.81" y="1750" width="280" height="270" as="geometry" />
        </mxCell>
        <mxCell id="QD6DIvaOTa5vyCy3siYk-88" value="" style="sketch=0;outlineConnect=0;fontColor=#232F3E;gradientColor=none;fillColor=#D45B07;strokeColor=none;dashed=0;verticalLabelPosition=bottom;verticalAlign=top;align=center;html=1;fontSize=12;fontStyle=0;aspect=fixed;pointerEvents=1;shape=mxgraph.aws4.lambda_function;" parent="QD6DIvaOTa5vyCy3siYk-87" vertex="1">
          <mxGeometry x="23" y="50" width="40" height="40" as="geometry" />
        </mxCell>
        <mxCell id="QD6DIvaOTa5vyCy3siYk-89" style="edgeStyle=orthogonalEdgeStyle;rounded=0;orthogonalLoop=1;jettySize=auto;html=1;" parent="QD6DIvaOTa5vyCy3siYk-87" source="QD6DIvaOTa5vyCy3siYk-90" target="QD6DIvaOTa5vyCy3siYk-92" edge="1">
          <mxGeometry relative="1" as="geometry" />
        </mxCell>
        <mxCell id="QD6DIvaOTa5vyCy3siYk-90" value="&lt;i&gt;&lt;font color=&quot;#cc0066&quot;&gt;(optional)&lt;/font&gt;&lt;/i&gt; classification" style="rounded=0;whiteSpace=wrap;html=1;fillColor=none;strokeColor=#FFB570;" parent="QD6DIvaOTa5vyCy3siYk-87" vertex="1">
          <mxGeometry x="13" y="40" width="257" height="60" as="geometry" />
        </mxCell>
        <mxCell id="QD6DIvaOTa5vyCy3siYk-91" value="" style="sketch=0;outlineConnect=0;fontColor=#232F3E;gradientColor=none;fillColor=#D45B07;strokeColor=none;dashed=0;verticalLabelPosition=bottom;verticalAlign=top;align=center;html=1;fontSize=12;fontStyle=0;aspect=fixed;pointerEvents=1;shape=mxgraph.aws4.lambda_function;" parent="QD6DIvaOTa5vyCy3siYk-87" vertex="1">
          <mxGeometry x="23" y="192.5" width="40" height="40" as="geometry" />
        </mxCell>
        <mxCell id="QD6DIvaOTa5vyCy3siYk-92" value="&lt;i&gt;Analyser&lt;/i&gt;" style="rounded=0;whiteSpace=wrap;html=1;fillColor=none;strokeColor=#FFB570;" parent="QD6DIvaOTa5vyCy3siYk-87" vertex="1">
          <mxGeometry x="13" y="182.5" width="257" height="60" as="geometry" />
        </mxCell>
        <mxCell id="QD6DIvaOTa5vyCy3siYk-93" value="recommender" style="sketch=0;outlineConnect=0;fontColor=#232F3E;gradientColor=none;fillColor=#D45B07;strokeColor=none;dashed=0;verticalLabelPosition=bottom;verticalAlign=top;align=center;html=1;fontSize=12;fontStyle=0;aspect=fixed;pointerEvents=1;shape=mxgraph.aws4.lambda_function;" parent="1" vertex="1">
          <mxGeometry x="674.6499999999999" y="1800" width="60" height="60" as="geometry" />
        </mxCell>
        <mxCell id="QD6DIvaOTa5vyCy3siYk-94" value="" style="endArrow=classic;html=1;rounded=0;startArrow=block;startFill=1;" parent="1" source="QD6DIvaOTa5vyCy3siYk-93" target="QD6DIvaOTa5vyCy3siYk-87" edge="1">
          <mxGeometry width="50" height="50" relative="1" as="geometry">
            <mxPoint x="816.81" y="1940" as="sourcePoint" />
            <mxPoint x="886.81" y="1844" as="targetPoint" />
          </mxGeometry>
        </mxCell>
        <mxCell id="QD6DIvaOTa5vyCy3siYk-95" value="output&lt;br&gt;from&lt;br&gt;analyser" style="edgeLabel;html=1;align=center;verticalAlign=middle;resizable=0;points=[];" parent="QD6DIvaOTa5vyCy3siYk-94" vertex="1" connectable="0">
          <mxGeometry x="-0.2528" y="2" relative="1" as="geometry">
            <mxPoint as="offset" />
          </mxGeometry>
        </mxCell>
        <mxCell id="QD6DIvaOTa5vyCy3siYk-96" style="edgeStyle=orthogonalEdgeStyle;rounded=0;orthogonalLoop=1;jettySize=auto;html=1;entryX=0.895;entryY=0;entryDx=0;entryDy=0;entryPerimeter=0;" parent="1" source="QD6DIvaOTa5vyCy3siYk-98" target="QD6DIvaOTa5vyCy3siYk-90" edge="1">
          <mxGeometry relative="1" as="geometry" />
        </mxCell>
        <mxCell id="QD6DIvaOTa5vyCy3siYk-97" style="edgeStyle=orthogonalEdgeStyle;rounded=0;orthogonalLoop=1;jettySize=auto;html=1;exitX=0.5;exitY=1;exitDx=0;exitDy=0;exitPerimeter=0;entryX=0.649;entryY=1.005;entryDx=0;entryDy=0;entryPerimeter=0;" parent="1" source="QD6DIvaOTa5vyCy3siYk-98" target="QD6DIvaOTa5vyCy3siYk-92" edge="1">
          <mxGeometry relative="1" as="geometry" />
        </mxCell>
        <mxCell id="QD6DIvaOTa5vyCy3siYk-98" value="soil data" style="sketch=0;points=[[0,0,0],[0.25,0,0],[0.5,0,0],[0.75,0,0],[1,0,0],[0,1,0],[0.25,1,0],[0.5,1,0],[0.75,1,0],[1,1,0],[0,0.25,0],[0,0.5,0],[0,0.75,0],[1,0.25,0],[1,0.5,0],[1,0.75,0]];outlineConnect=0;fontColor=#232F3E;gradientColor=#4D72F3;gradientDirection=north;fillColor=#3334B9;strokeColor=#ffffff;dashed=0;verticalLabelPosition=bottom;verticalAlign=top;align=center;html=1;fontSize=12;fontStyle=0;aspect=fixed;shape=mxgraph.aws4.resourceIcon;resIcon=mxgraph.aws4.dynamodb;" parent="1" vertex="1">
          <mxGeometry x="1179.56" y="1680" width="47.25" height="47.25" as="geometry" />
        </mxCell>
        <mxCell id="QD6DIvaOTa5vyCy3siYk-99" style="edgeStyle=orthogonalEdgeStyle;rounded=0;orthogonalLoop=1;jettySize=auto;html=1;entryX=1.003;entryY=0.619;entryDx=0;entryDy=0;entryPerimeter=0;" parent="1" source="QD6DIvaOTa5vyCy3siYk-100" target="QD6DIvaOTa5vyCy3siYk-92" edge="1">
          <mxGeometry relative="1" as="geometry" />
        </mxCell>
        <mxCell id="QD6DIvaOTa5vyCy3siYk-100" value="weather data&lt;br&gt;from source" style="shape=image;html=1;verticalAlign=top;verticalLabelPosition=bottom;labelBackgroundColor=#ffffff;imageAspect=0;aspect=fixed;image=https://cdn2.iconfinder.com/data/icons/weather-color-2/500/weather-03-128.png" parent="1" vertex="1">
          <mxGeometry x="1244.31" y="1780" width="55" height="55" as="geometry" />
        </mxCell>
        <mxCell id="QD6DIvaOTa5vyCy3siYk-101" value="" style="endArrow=classic;html=1;rounded=0;fillColor=#d5e8d4;strokeColor=#82b366;" parent="1" edge="1">
          <mxGeometry width="50" height="50" relative="1" as="geometry">
            <mxPoint x="660.3899999999999" y="1800" as="sourcePoint" />
            <mxPoint x="560.3899999999999" y="1800" as="targetPoint" />
          </mxGeometry>
        </mxCell>
        <mxCell id="QD6DIvaOTa5vyCy3siYk-102" value="Response" style="edgeLabel;html=1;align=center;verticalAlign=middle;resizable=0;points=[];" parent="QD6DIvaOTa5vyCy3siYk-101" vertex="1" connectable="0">
          <mxGeometry x="0.2012" relative="1" as="geometry">
            <mxPoint as="offset" />
          </mxGeometry>
        </mxCell>
        <mxCell id="QD6DIvaOTa5vyCy3siYk-103" value="&lt;ul&gt;&lt;li&gt;invokes the step function&lt;/li&gt;&lt;li&gt;formates the response from analyser&lt;/li&gt;&lt;/ul&gt;" style="shape=note;whiteSpace=wrap;html=1;backgroundOutline=1;darkOpacity=0.05;align=left;fillColor=#d5e8d4;strokeColor=#82b366;" parent="1" vertex="1">
          <mxGeometry x="656.81" y="1685" width="162.16" height="100" as="geometry" />
        </mxCell>
        <mxCell id="QD6DIvaOTa5vyCy3siYk-104" value="IT team for raising tickets&lt;br&gt;&amp;amp;&lt;br&gt;subsequent reponse of sutable error" style="sketch=0;points=[[0,0,0],[0.25,0,0],[0.5,0,0],[0.75,0,0],[1,0,0],[0,1,0],[0.25,1,0],[0.5,1,0],[0.75,1,0],[1,1,0],[0,0.25,0],[0,0.5,0],[0,0.75,0],[1,0.25,0],[1,0.5,0],[1,0.75,0]];outlineConnect=0;fontColor=#232F3E;gradientColor=#FF4F8B;gradientDirection=north;fillColor=#BC1356;strokeColor=#ffffff;dashed=0;verticalLabelPosition=bottom;verticalAlign=top;align=center;html=1;fontSize=12;fontStyle=0;aspect=fixed;shape=mxgraph.aws4.resourceIcon;resIcon=mxgraph.aws4.sns;" parent="1" vertex="1">
          <mxGeometry x="1306.81" y="1910" width="48" height="48" as="geometry" />
        </mxCell>
        <mxCell id="QD6DIvaOTa5vyCy3siYk-105" style="edgeStyle=orthogonalEdgeStyle;rounded=0;orthogonalLoop=1;jettySize=auto;html=1;entryX=0;entryY=0.75;entryDx=0;entryDy=0;entryPerimeter=0;fillColor=#f8cecc;strokeColor=#b85450;" parent="1" source="QD6DIvaOTa5vyCy3siYk-90" target="QD6DIvaOTa5vyCy3siYk-104" edge="1">
          <mxGeometry relative="1" as="geometry" />
        </mxCell>
        <mxCell id="QD6DIvaOTa5vyCy3siYk-106" value="Error" style="edgeLabel;html=1;align=center;verticalAlign=middle;resizable=0;points=[];" parent="QD6DIvaOTa5vyCy3siYk-105" vertex="1" connectable="0">
          <mxGeometry x="0.5891" relative="1" as="geometry">
            <mxPoint as="offset" />
          </mxGeometry>
        </mxCell>
        <mxCell id="QD6DIvaOTa5vyCy3siYk-107" style="edgeStyle=orthogonalEdgeStyle;rounded=0;orthogonalLoop=1;jettySize=auto;html=1;entryX=0;entryY=0.25;entryDx=0;entryDy=0;entryPerimeter=0;fillColor=#f8cecc;strokeColor=#b85450;" parent="1" source="QD6DIvaOTa5vyCy3siYk-92" target="QD6DIvaOTa5vyCy3siYk-104" edge="1">
          <mxGeometry relative="1" as="geometry" />
        </mxCell>
        <mxCell id="QD6DIvaOTa5vyCy3siYk-108" value="Error" style="edgeLabel;html=1;align=center;verticalAlign=middle;resizable=0;points=[];" parent="QD6DIvaOTa5vyCy3siYk-107" vertex="1" connectable="0">
          <mxGeometry x="0.4977" y="1" relative="1" as="geometry">
            <mxPoint as="offset" />
          </mxGeometry>
        </mxCell>
        <mxCell id="QD6DIvaOTa5vyCy3siYk-109" value="soil data" style="sketch=0;points=[[0,0,0],[0.25,0,0],[0.5,0,0],[0.75,0,0],[1,0,0],[0,1,0],[0.25,1,0],[0.5,1,0],[0.75,1,0],[1,1,0],[0,0.25,0],[0,0.5,0],[0,0.75,0],[1,0.25,0],[1,0.5,0],[1,0.75,0]];outlineConnect=0;fontColor=#232F3E;gradientColor=#4D72F3;gradientDirection=north;fillColor=#3334B9;strokeColor=#ffffff;dashed=0;verticalLabelPosition=bottom;verticalAlign=top;align=center;html=1;fontSize=12;fontStyle=0;aspect=fixed;shape=mxgraph.aws4.resourceIcon;resIcon=mxgraph.aws4.dynamodb;movable=1;resizable=1;rotatable=1;deletable=1;editable=1;locked=0;connectable=1;shadow=0;" parent="1" vertex="1">
          <mxGeometry x="1230" y="374.5" width="47.25" height="47.25" as="geometry" />
        </mxCell>
        <mxCell id="QD6DIvaOTa5vyCy3siYk-110" value="Table" style="shape=table;startSize=30;container=1;collapsible=1;childLayout=tableLayout;fixedRows=1;rowLines=0;fontStyle=1;align=center;resizeLast=1;html=1;movable=1;resizable=1;rotatable=1;deletable=1;editable=1;locked=0;connectable=1;shadow=0;" parent="1" vertex="1">
          <mxGeometry x="1297.25" y="404.5" width="180" height="150" as="geometry" />
        </mxCell>
        <mxCell id="QD6DIvaOTa5vyCy3siYk-111" value="" style="shape=tableRow;horizontal=0;startSize=0;swimlaneHead=0;swimlaneBody=0;fillColor=none;collapsible=0;dropTarget=0;points=[[0,0.5],[1,0.5]];portConstraint=eastwest;top=0;left=0;right=0;bottom=1;movable=1;resizable=1;rotatable=1;deletable=1;editable=1;locked=0;connectable=1;shadow=0;html=1;" parent="QD6DIvaOTa5vyCy3siYk-110" vertex="1">
          <mxGeometry y="30" width="180" height="30" as="geometry" />
        </mxCell>
        <mxCell id="QD6DIvaOTa5vyCy3siYk-112" value="PK" style="shape=partialRectangle;connectable=1;fillColor=none;top=0;left=0;bottom=0;right=0;fontStyle=1;overflow=hidden;whiteSpace=wrap;html=1;movable=1;resizable=1;rotatable=1;deletable=1;editable=1;locked=0;shadow=0;" parent="QD6DIvaOTa5vyCy3siYk-111" vertex="1">
          <mxGeometry width="30" height="30" as="geometry">
            <mxRectangle width="30" height="30" as="alternateBounds" />
          </mxGeometry>
        </mxCell>
        <mxCell id="QD6DIvaOTa5vyCy3siYk-113" value="user_id" style="shape=partialRectangle;connectable=1;fillColor=none;top=0;left=0;bottom=0;right=0;align=left;spacingLeft=6;fontStyle=5;overflow=hidden;whiteSpace=wrap;html=1;movable=1;resizable=1;rotatable=1;deletable=1;editable=1;locked=0;shadow=0;" parent="QD6DIvaOTa5vyCy3siYk-111" vertex="1">
          <mxGeometry x="30" width="150" height="30" as="geometry">
            <mxRectangle width="150" height="30" as="alternateBounds" />
          </mxGeometry>
        </mxCell>
        <mxCell id="QD6DIvaOTa5vyCy3siYk-114" value="" style="shape=tableRow;horizontal=0;startSize=0;swimlaneHead=0;swimlaneBody=0;fillColor=none;collapsible=0;dropTarget=0;points=[[0,0.5],[1,0.5]];portConstraint=eastwest;top=0;left=0;right=0;bottom=0;movable=1;resizable=1;rotatable=1;deletable=1;editable=1;locked=0;connectable=1;shadow=0;html=1;" parent="QD6DIvaOTa5vyCy3siYk-110" vertex="1">
          <mxGeometry y="60" width="180" height="30" as="geometry" />
        </mxCell>
        <mxCell id="QD6DIvaOTa5vyCy3siYk-115" value="" style="shape=partialRectangle;connectable=1;fillColor=none;top=0;left=0;bottom=0;right=0;editable=1;overflow=hidden;whiteSpace=wrap;html=1;movable=1;resizable=1;rotatable=1;deletable=1;locked=0;shadow=0;" parent="QD6DIvaOTa5vyCy3siYk-114" vertex="1">
          <mxGeometry width="30" height="30" as="geometry">
            <mxRectangle width="30" height="30" as="alternateBounds" />
          </mxGeometry>
        </mxCell>
        <mxCell id="QD6DIvaOTa5vyCy3siYk-116" value="water level" style="shape=partialRectangle;connectable=1;fillColor=none;top=0;left=0;bottom=0;right=0;align=left;spacingLeft=6;overflow=hidden;whiteSpace=wrap;html=1;movable=1;resizable=1;rotatable=1;deletable=1;editable=1;locked=0;shadow=0;" parent="QD6DIvaOTa5vyCy3siYk-114" vertex="1">
          <mxGeometry x="30" width="150" height="30" as="geometry">
            <mxRectangle width="150" height="30" as="alternateBounds" />
          </mxGeometry>
        </mxCell>
        <mxCell id="QD6DIvaOTa5vyCy3siYk-117" value="" style="shape=tableRow;horizontal=0;startSize=0;swimlaneHead=0;swimlaneBody=0;fillColor=none;collapsible=0;dropTarget=0;points=[[0,0.5],[1,0.5]];portConstraint=eastwest;top=0;left=0;right=0;bottom=0;movable=1;resizable=1;rotatable=1;deletable=1;editable=1;locked=0;connectable=1;shadow=0;html=1;" parent="QD6DIvaOTa5vyCy3siYk-110" vertex="1">
          <mxGeometry y="90" width="180" height="30" as="geometry" />
        </mxCell>
        <mxCell id="QD6DIvaOTa5vyCy3siYk-118" value="" style="shape=partialRectangle;connectable=1;fillColor=none;top=0;left=0;bottom=0;right=0;editable=1;overflow=hidden;whiteSpace=wrap;html=1;movable=1;resizable=1;rotatable=1;deletable=1;locked=0;shadow=0;" parent="QD6DIvaOTa5vyCy3siYk-117" vertex="1">
          <mxGeometry width="30" height="30" as="geometry">
            <mxRectangle width="30" height="30" as="alternateBounds" />
          </mxGeometry>
        </mxCell>
        <mxCell id="QD6DIvaOTa5vyCy3siYk-119" value="nutrient level json{}" style="shape=partialRectangle;connectable=1;fillColor=none;top=0;left=0;bottom=0;right=0;align=left;spacingLeft=6;overflow=hidden;whiteSpace=wrap;html=1;movable=1;resizable=1;rotatable=1;deletable=1;editable=1;locked=0;shadow=0;" parent="QD6DIvaOTa5vyCy3siYk-117" vertex="1">
          <mxGeometry x="30" width="150" height="30" as="geometry">
            <mxRectangle width="150" height="30" as="alternateBounds" />
          </mxGeometry>
        </mxCell>
        <mxCell id="QD6DIvaOTa5vyCy3siYk-120" value="" style="shape=tableRow;horizontal=0;startSize=0;swimlaneHead=0;swimlaneBody=0;fillColor=none;collapsible=0;dropTarget=0;points=[[0,0.5],[1,0.5]];portConstraint=eastwest;top=0;left=0;right=0;bottom=0;movable=1;resizable=1;rotatable=1;deletable=1;editable=1;locked=0;connectable=1;shadow=0;html=1;" parent="QD6DIvaOTa5vyCy3siYk-110" vertex="1">
          <mxGeometry y="120" width="180" height="30" as="geometry" />
        </mxCell>
        <mxCell id="QD6DIvaOTa5vyCy3siYk-121" value="" style="shape=partialRectangle;connectable=1;fillColor=none;top=0;left=0;bottom=0;right=0;editable=1;overflow=hidden;whiteSpace=wrap;html=1;movable=1;resizable=1;rotatable=1;deletable=1;locked=0;shadow=0;" parent="QD6DIvaOTa5vyCy3siYk-120" vertex="1">
          <mxGeometry width="30" height="30" as="geometry">
            <mxRectangle width="30" height="30" as="alternateBounds" />
          </mxGeometry>
        </mxCell>
        <mxCell id="QD6DIvaOTa5vyCy3siYk-122" value="" style="shape=partialRectangle;connectable=1;fillColor=none;top=0;left=0;bottom=0;right=0;align=left;spacingLeft=6;overflow=hidden;whiteSpace=wrap;html=1;movable=1;resizable=1;rotatable=1;deletable=1;editable=1;locked=0;shadow=0;" parent="QD6DIvaOTa5vyCy3siYk-120" vertex="1">
          <mxGeometry x="30" width="150" height="30" as="geometry">
            <mxRectangle width="150" height="30" as="alternateBounds" />
          </mxGeometry>
        </mxCell>
        <mxCell id="QD6DIvaOTa5vyCy3siYk-123" value="&lt;font color=&quot;#cc0066&quot;&gt;optional&lt;/font&gt;" style="text;html=1;align=center;verticalAlign=middle;resizable=1;points=[];autosize=1;strokeColor=none;fillColor=none;movable=1;rotatable=1;deletable=1;editable=1;locked=0;connectable=1;shadow=0;" parent="1" vertex="1">
          <mxGeometry x="1277.25" y="332.5" width="70" height="30" as="geometry" />
        </mxCell>
        <mxCell id="QD6DIvaOTa5vyCy3siYk-124" value="" style="group;shadow=1;html=1;" parent="1" vertex="1" connectable="0">
          <mxGeometry x="40" y="290" width="540" height="308.75" as="geometry" />
        </mxCell>
        <mxCell id="QD6DIvaOTa5vyCy3siYk-125" value="" style="rounded=0;whiteSpace=wrap;html=1;fillColor=default;glass=0;dashed=1;dashPattern=1 4;movable=1;resizable=1;rotatable=1;deletable=1;editable=1;locked=0;connectable=1;container=0;" parent="QD6DIvaOTa5vyCy3siYk-124" vertex="1">
          <mxGeometry width="540" height="308.75" as="geometry" />
        </mxCell>
        <mxCell id="QD6DIvaOTa5vyCy3siYk-126" value="API gateway" style="sketch=0;points=[[0,0,0],[0.25,0,0],[0.5,0,0],[0.75,0,0],[1,0,0],[0,1,0],[0.25,1,0],[0.5,1,0],[0.75,1,0],[1,1,0],[0,0.25,0],[0,0.5,0],[0,0.75,0],[1,0.25,0],[1,0.5,0],[1,0.75,0]];outlineConnect=0;fontColor=#232F3E;gradientColor=#FF4F8B;gradientDirection=north;fillColor=#BC1356;strokeColor=#ffffff;dashed=0;verticalLabelPosition=bottom;verticalAlign=top;align=center;html=1;fontSize=12;fontStyle=0;aspect=fixed;shape=mxgraph.aws4.resourceIcon;resIcon=mxgraph.aws4.api_gateway;movable=1;resizable=1;rotatable=1;deletable=1;editable=1;locked=0;connectable=1;container=0;" parent="QD6DIvaOTa5vyCy3siYk-124" vertex="1">
          <mxGeometry x="130" y="98.75" width="90" height="90" as="geometry" />
        </mxCell>
        <mxCell id="QD6DIvaOTa5vyCy3siYk-127" value="" style="endArrow=classic;html=1;rounded=0;entryX=0.002;entryY=0.417;entryDx=0;entryDy=0;entryPerimeter=0;movable=1;resizable=1;rotatable=1;deletable=1;editable=1;locked=0;connectable=1;" parent="QD6DIvaOTa5vyCy3siYk-124" target="QD6DIvaOTa5vyCy3siYk-126" edge="1">
          <mxGeometry width="50" height="50" relative="1" as="geometry">
            <mxPoint x="40" y="138.75" as="sourcePoint" />
            <mxPoint x="130" y="158.75" as="targetPoint" />
          </mxGeometry>
        </mxCell>
        <mxCell id="QD6DIvaOTa5vyCy3siYk-128" value="/app/upload" style="edgeLabel;html=1;align=center;verticalAlign=middle;resizable=1;points=[];movable=1;rotatable=1;deletable=1;editable=1;locked=0;connectable=1;container=0;" parent="QD6DIvaOTa5vyCy3siYk-127" vertex="1" connectable="0">
          <mxGeometry x="-0.2321" y="1" relative="1" as="geometry">
            <mxPoint as="offset" />
          </mxGeometry>
        </mxCell>
        <mxCell id="QD6DIvaOTa5vyCy3siYk-129" value="" style="endArrow=classic;html=1;rounded=0;entryX=0;entryY=0.111;entryDx=0;entryDy=0;entryPerimeter=0;movable=1;resizable=1;rotatable=1;deletable=1;editable=1;locked=0;connectable=1;" parent="QD6DIvaOTa5vyCy3siYk-124" target="QD6DIvaOTa5vyCy3siYk-126" edge="1">
          <mxGeometry width="50" height="50" relative="1" as="geometry">
            <mxPoint x="40" y="108.75" as="sourcePoint" />
            <mxPoint x="90" y="88.75" as="targetPoint" />
          </mxGeometry>
        </mxCell>
        <mxCell id="QD6DIvaOTa5vyCy3siYk-130" value="/login&lt;br&gt;or&lt;br&gt;/signup" style="edgeLabel;html=1;align=center;verticalAlign=middle;resizable=1;points=[];movable=1;rotatable=1;deletable=1;editable=1;locked=0;connectable=1;container=0;" parent="QD6DIvaOTa5vyCy3siYk-129" vertex="1" connectable="0">
          <mxGeometry x="-0.2479" y="1" relative="1" as="geometry">
            <mxPoint as="offset" />
          </mxGeometry>
        </mxCell>
        <mxCell id="QD6DIvaOTa5vyCy3siYk-131" value="" style="endArrow=classic;html=1;rounded=0;entryX=0;entryY=0.75;entryDx=0;entryDy=0;entryPerimeter=0;movable=1;resizable=1;rotatable=1;deletable=1;editable=1;locked=0;connectable=1;" parent="QD6DIvaOTa5vyCy3siYk-124" target="QD6DIvaOTa5vyCy3siYk-126" edge="1">
          <mxGeometry width="50" height="50" relative="1" as="geometry">
            <mxPoint x="40" y="168.75" as="sourcePoint" />
            <mxPoint x="70" y="138.75" as="targetPoint" />
          </mxGeometry>
        </mxCell>
        <mxCell id="QD6DIvaOTa5vyCy3siYk-132" value="/app/live" style="edgeLabel;html=1;align=center;verticalAlign=middle;resizable=1;points=[];movable=1;rotatable=1;deletable=1;editable=1;locked=0;connectable=1;container=0;" parent="QD6DIvaOTa5vyCy3siYk-131" vertex="1" connectable="0">
          <mxGeometry x="-0.5109" relative="1" as="geometry">
            <mxPoint x="8" as="offset" />
          </mxGeometry>
        </mxCell>
        <mxCell id="QD6DIvaOTa5vyCy3siYk-133" value="" style="strokeWidth=2;html=1;shape=mxgraph.flowchart.annotation_2;align=left;labelPosition=right;pointerEvents=1;movable=1;resizable=1;rotatable=1;deletable=1;editable=1;locked=0;connectable=1;container=0;" parent="QD6DIvaOTa5vyCy3siYk-124" vertex="1">
          <mxGeometry x="220" y="93.75" width="50" height="135" as="geometry" />
        </mxCell>
        <mxCell id="QD6DIvaOTa5vyCy3siYk-134" value="" style="rounded=0;whiteSpace=wrap;html=1;fillColor=#333333;movable=1;resizable=1;rotatable=1;deletable=1;editable=1;locked=0;connectable=1;container=0;" parent="QD6DIvaOTa5vyCy3siYk-124" vertex="1">
          <mxGeometry x="270" y="78.75" width="40" height="30" as="geometry" />
        </mxCell>
        <mxCell id="QD6DIvaOTa5vyCy3siYk-135" value="" style="rounded=0;whiteSpace=wrap;html=1;fillColor=#333333;movable=1;resizable=1;rotatable=1;deletable=1;editable=1;locked=0;connectable=1;container=0;" parent="QD6DIvaOTa5vyCy3siYk-124" vertex="1">
          <mxGeometry x="270" y="208.75" width="40" height="30" as="geometry" />
        </mxCell>
        <mxCell id="QD6DIvaOTa5vyCy3siYk-136" value="" style="endArrow=none;html=1;rounded=0;exitX=0.496;exitY=0.338;exitDx=0;exitDy=0;exitPerimeter=0;strokeWidth=2;entryX=1.007;entryY=0.34;entryDx=0;entryDy=0;entryPerimeter=0;movable=1;resizable=1;rotatable=1;deletable=1;editable=1;locked=0;connectable=1;" parent="QD6DIvaOTa5vyCy3siYk-124" source="QD6DIvaOTa5vyCy3siYk-133" target="QD6DIvaOTa5vyCy3siYk-133" edge="1">
          <mxGeometry width="50" height="50" relative="1" as="geometry">
            <mxPoint x="250" y="138.75" as="sourcePoint" />
            <mxPoint x="270" y="138.75" as="targetPoint" />
          </mxGeometry>
        </mxCell>
        <mxCell id="QD6DIvaOTa5vyCy3siYk-137" value="" style="rounded=0;whiteSpace=wrap;html=1;fillColor=#333333;movable=1;resizable=1;rotatable=1;deletable=1;editable=1;locked=0;connectable=1;container=0;" parent="QD6DIvaOTa5vyCy3siYk-124" vertex="1">
          <mxGeometry x="270" y="123.75" width="40" height="25" as="geometry" />
        </mxCell>
        <mxCell id="QD6DIvaOTa5vyCy3siYk-138" value="" style="endArrow=none;html=1;rounded=0;exitX=0.496;exitY=0.338;exitDx=0;exitDy=0;exitPerimeter=0;strokeWidth=2;entryX=1.007;entryY=0.34;entryDx=0;entryDy=0;entryPerimeter=0;movable=1;resizable=1;rotatable=1;deletable=1;editable=1;locked=0;connectable=1;" parent="QD6DIvaOTa5vyCy3siYk-124" edge="1">
          <mxGeometry width="50" height="50" relative="1" as="geometry">
            <mxPoint x="245" y="179.75" as="sourcePoint" />
            <mxPoint x="270" y="179.75" as="targetPoint" />
          </mxGeometry>
        </mxCell>
        <mxCell id="QD6DIvaOTa5vyCy3siYk-139" value="" style="rounded=0;whiteSpace=wrap;html=1;fillColor=#333333;movable=1;resizable=1;rotatable=1;deletable=1;editable=1;locked=0;connectable=1;container=0;" parent="QD6DIvaOTa5vyCy3siYk-124" vertex="1">
          <mxGeometry x="270" y="163.75" width="40" height="25" as="geometry" />
        </mxCell>
        <mxCell id="QD6DIvaOTa5vyCy3siYk-140" value="&lt;font style=&quot;font-size: 12px;&quot;&gt;/login&lt;/font&gt;" style="text;html=1;strokeColor=none;fillColor=none;align=center;verticalAlign=middle;whiteSpace=wrap;rounded=0;movable=1;resizable=1;rotatable=1;deletable=1;editable=1;locked=0;connectable=1;container=0;" parent="QD6DIvaOTa5vyCy3siYk-124" vertex="1">
          <mxGeometry x="314" y="78.75" width="60" height="30" as="geometry" />
        </mxCell>
        <mxCell id="QD6DIvaOTa5vyCy3siYk-141" value="/app/upload" style="text;html=1;strokeColor=none;fillColor=none;align=center;verticalAlign=middle;whiteSpace=wrap;rounded=0;movable=1;resizable=1;rotatable=1;deletable=1;editable=1;locked=0;connectable=1;container=0;" parent="QD6DIvaOTa5vyCy3siYk-124" vertex="1">
          <mxGeometry x="330" y="123.75" width="60" height="30" as="geometry" />
        </mxCell>
        <mxCell id="QD6DIvaOTa5vyCy3siYk-142" value="/app/live" style="text;html=1;strokeColor=none;fillColor=none;align=center;verticalAlign=middle;whiteSpace=wrap;rounded=0;movable=1;resizable=1;rotatable=1;deletable=1;editable=1;locked=0;connectable=1;container=0;" parent="QD6DIvaOTa5vyCy3siYk-124" vertex="1">
          <mxGeometry x="320" y="158.75" width="60" height="30" as="geometry" />
        </mxCell>
        <mxCell id="QD6DIvaOTa5vyCy3siYk-143" value="/app/get-pred" style="text;html=1;strokeColor=none;fillColor=none;align=center;verticalAlign=middle;whiteSpace=wrap;rounded=0;movable=1;resizable=1;rotatable=1;deletable=1;editable=1;locked=0;connectable=1;container=0;" parent="QD6DIvaOTa5vyCy3siYk-124" vertex="1">
          <mxGeometry x="324" y="208.75" width="80" height="30" as="geometry" />
        </mxCell>
        <mxCell id="QD6DIvaOTa5vyCy3siYk-144" value="" style="image;sketch=0;aspect=fixed;html=1;points=[];align=center;fontSize=12;image=img/lib/mscae/Key.svg;movable=1;resizable=1;rotatable=1;deletable=1;editable=1;locked=0;connectable=1;container=0;" parent="QD6DIvaOTa5vyCy3siYk-124" vertex="1">
          <mxGeometry x="17.600000000000023" y="98.75" width="12.4" height="20" as="geometry" />
        </mxCell>
        <mxCell id="QD6DIvaOTa5vyCy3siYk-145" value="" style="sketch=0;pointerEvents=1;shadow=0;dashed=0;html=1;strokeColor=none;fillColor=#505050;labelPosition=center;verticalLabelPosition=bottom;verticalAlign=top;outlineConnect=0;align=center;shape=mxgraph.office.security.token;movable=1;resizable=1;rotatable=1;deletable=1;editable=1;locked=0;connectable=1;container=0;" parent="QD6DIvaOTa5vyCy3siYk-124" vertex="1">
          <mxGeometry x="418.32000000000005" y="213.75" width="15.68" height="20" as="geometry" />
        </mxCell>
        <mxCell id="QD6DIvaOTa5vyCy3siYk-146" value="" style="sketch=0;pointerEvents=1;shadow=0;dashed=0;html=1;strokeColor=none;fillColor=#505050;labelPosition=center;verticalLabelPosition=bottom;verticalAlign=top;outlineConnect=0;align=center;shape=mxgraph.office.security.token;movable=1;resizable=1;rotatable=1;deletable=1;editable=1;locked=0;connectable=1;container=0;" parent="QD6DIvaOTa5vyCy3siYk-124" vertex="1">
          <mxGeometry x="390.00000000000006" y="166.25" width="15.68" height="20" as="geometry" />
        </mxCell>
        <mxCell id="QD6DIvaOTa5vyCy3siYk-147" value="" style="sketch=0;pointerEvents=1;shadow=0;dashed=0;html=1;strokeColor=none;fillColor=#505050;labelPosition=center;verticalLabelPosition=bottom;verticalAlign=top;outlineConnect=0;align=center;shape=mxgraph.office.security.token;movable=1;resizable=1;rotatable=1;deletable=1;editable=1;locked=0;connectable=1;container=0;" parent="QD6DIvaOTa5vyCy3siYk-124" vertex="1">
          <mxGeometry x="404.00000000000006" y="123.75" width="15.68" height="20" as="geometry" />
        </mxCell>
        <mxCell id="QD6DIvaOTa5vyCy3siYk-148" value="" style="verticalLabelPosition=bottom;verticalAlign=top;html=1;shape=card;whiteSpace=wrap;size=20;arcSize=12;fillColor=#ffe6cc;strokeColor=#d79b00;movable=1;resizable=1;rotatable=1;deletable=1;editable=1;locked=0;connectable=1;container=0;" parent="QD6DIvaOTa5vyCy3siYk-124" vertex="1">
          <mxGeometry x="450" y="33.75" width="70" height="80" as="geometry" />
        </mxCell>
        <mxCell id="QD6DIvaOTa5vyCy3siYk-149" value="/app/** requires token access" style="text;html=1;strokeColor=none;fillColor=none;align=left;verticalAlign=middle;whiteSpace=wrap;rounded=0;movable=1;resizable=1;rotatable=1;deletable=1;editable=1;locked=0;connectable=1;container=0;" parent="QD6DIvaOTa5vyCy3siYk-124" vertex="1">
          <mxGeometry x="465" y="23.75" width="60" height="100" as="geometry" />
        </mxCell>
        <mxCell id="QD6DIvaOTa5vyCy3siYk-150" value="TBD" style="text;html=1;strokeColor=#b85450;fillColor=#f8cecc;align=center;verticalAlign=middle;whiteSpace=wrap;rounded=0;movable=1;resizable=1;rotatable=1;deletable=1;editable=1;locked=0;connectable=1;container=0;" parent="QD6DIvaOTa5vyCy3siYk-124" vertex="1">
          <mxGeometry x="418.32" y="161.25" width="60" height="30" as="geometry" />
        </mxCell>
        <mxCell id="QD6DIvaOTa5vyCy3siYk-151" value="SQL" style="text;html=1;strokeColor=none;fillColor=none;align=center;verticalAlign=middle;whiteSpace=wrap;rounded=0;movable=1;resizable=1;rotatable=1;deletable=1;editable=1;locked=0;connectable=1;shadow=0;" parent="1" vertex="1">
          <mxGeometry x="902.75" y="540" width="60" height="30" as="geometry" />
        </mxCell>
        <mxCell id="QD6DIvaOTa5vyCy3siYk-152" value="NoSQL" style="text;html=1;strokeColor=none;fillColor=none;align=center;verticalAlign=middle;whiteSpace=wrap;rounded=0;movable=1;resizable=1;rotatable=1;deletable=1;editable=1;locked=0;connectable=1;shadow=0;" parent="1" vertex="1">
          <mxGeometry x="1510" y="464.5" width="60" height="30" as="geometry" />
        </mxCell>
        <mxCell id="QD6DIvaOTa5vyCy3siYk-153" value="&lt;h1&gt;&lt;span style=&quot;font-size: 45px;&quot;&gt;Crop yield monitor design doc&lt;/span&gt;&lt;/h1&gt;" style="text;html=1;strokeColor=none;fillColor=none;align=center;verticalAlign=middle;whiteSpace=wrap;rounded=0;" parent="1" vertex="1">
          <mxGeometry x="610" y="40" width="465" height="180" as="geometry" />
        </mxCell>
        <UserObject label="%date{ddd mmm dd yyyy HH:MM:ss}%" placeholders="1" id="QD6DIvaOTa5vyCy3siYk-154">
          <mxCell style="text;html=1;strokeColor=#6c8ebf;fillColor=#dae8fc;align=center;verticalAlign=middle;whiteSpace=wrap;overflow=hidden;" parent="1" vertex="1">
            <mxGeometry x="1156.71" y="160" width="160" height="20" as="geometry" />
          </mxCell>
        </UserObject>
        <mxCell id="QD6DIvaOTa5vyCy3siYk-155" value="©&amp;nbsp;@DipankarDas011" style="text;html=1;strokeColor=#6c8ebf;fillColor=#dae8fc;align=center;verticalAlign=middle;whiteSpace=wrap;rounded=0;" parent="1" vertex="1">
          <mxGeometry x="298" y="180" width="162" height="30" as="geometry" />
        </mxCell>
        <mxCell id="QD6DIvaOTa5vyCy3siYk-156" style="edgeStyle=orthogonalEdgeStyle;rounded=0;orthogonalLoop=1;jettySize=auto;html=1;" parent="1" source="QD6DIvaOTa5vyCy3siYk-157" target="QD6DIvaOTa5vyCy3siYk-92" edge="1">
          <mxGeometry relative="1" as="geometry" />
        </mxCell>
        <mxCell id="QD6DIvaOTa5vyCy3siYk-157" value="User details" style="sketch=0;points=[[0,0,0],[0.25,0,0],[0.5,0,0],[0.75,0,0],[1,0,0],[0,1,0],[0.25,1,0],[0.5,1,0],[0.75,1,0],[1,1,0],[0,0.25,0],[0,0.5,0],[0,0.75,0],[1,0.25,0],[1,0.5,0],[1,0.75,0]];outlineConnect=0;fontColor=#232F3E;gradientColor=#4D72F3;gradientDirection=north;fillColor=#3334B9;strokeColor=#ffffff;dashed=0;verticalLabelPosition=bottom;verticalAlign=top;align=center;html=1;fontSize=12;fontStyle=0;aspect=fixed;shape=mxgraph.aws4.resourceIcon;resIcon=mxgraph.aws4.aurora;movable=1;resizable=1;rotatable=1;deletable=1;editable=1;locked=0;connectable=1;shadow=0;" parent="1" vertex="1">
          <mxGeometry x="703.81" y="1958" width="45.5" height="45.5" as="geometry" />
        </mxCell>
      </root>
    </mxGraphModel>
  </diagram>
</mxfile>
